<?xml version="1.0" encoding="UTF-8" standalone="no"?>
<!DOCTYPE svg PUBLIC "-//W3C//DTD SVG 1.1//EN" "http://www.w3.org/Graphics/SVG/1.1/DTD/svg11.dtd">
<svg width="100%" height="100%" viewBox="0 0 1505 751" version="1.1" xmlns="http://www.w3.org/2000/svg" xmlns:xlink="http://www.w3.org/1999/xlink" xml:space="preserve" xmlns:serif="http://www.serif.com/" style="fill-rule:evenodd;clip-rule:evenodd;stroke-linejoin:round;stroke-miterlimit:2;">
    <g transform="matrix(1,0,0,1,-272.125826,-582.510945)">
        <g id="Fundo" transform="matrix(2,0,0,2,0,0)">
            <path d="M294.482,450.948C217.217,447.933 209.823,447.346 202.478,446.763C164.713,443.765 167.744,428.407 173.029,398.423C180.067,358.493 191.44,361.12 245.5,361.129C360.252,361.149 360.591,360.482 371.334,364.879C390.693,372.803 381.529,405.631 379.422,406.193C378.468,406.447 330.167,406.29 329.549,406.265C325.949,406.114 332.299,396.342 322.494,395.612C321.352,395.527 242.041,395.488 238.505,395.63C223.489,396.229 225.342,409.495 232.595,411.006C237.302,411.986 314.909,415.185 316.511,415.249C352.897,416.693 380.997,415.016 376.485,448.498C371.931,482.3 367.963,488.238 366.011,491.16C355.821,506.41 340.86,504.279 278.5,504.29C179.249,504.306 170.645,505.731 162.727,493.35C155.485,482.027 160.934,457.783 163.452,457.255C166.049,456.71 209.512,457.163 213.517,457.204C216.539,457.236 215.579,458.556 215.462,461.499C215.089,470.927 219.714,469.314 247.5,469.31C313.623,469.3 315.538,470.034 317.763,464.625C324.001,449.461 307.395,451.443 294.482,450.948Z" style="fill:rgb(254,254,254);"/>
            <path d="M440.058,499.432C439.353,502.587 440.754,504.146 437.472,504.249C435.355,504.315 386.952,504.322 386.567,504.237C384.241,503.72 385.651,502.492 392.719,460.54C393.094,458.313 409.418,363.566 409.79,362.6C410.415,360.975 411.062,361.111 448.501,361.137C453.821,361.14 454.606,359.982 457.91,364.177C462.377,369.85 513.012,434.152 514.503,434.492C515.235,434.659 515.463,434.633 540.083,413.027C597.469,362.669 597.061,361.188 601.499,361.133C605.348,361.086 647.523,360.568 649.609,361.238C651.172,361.739 650.209,365.801 645.389,392.479C637.245,437.548 626.982,503.317 625.281,504.051C624.594,504.348 624.648,504.21 580.5,504.288C579.849,504.289 572.678,504.302 572.396,503.555C571.99,502.482 572.286,502.424 577.659,470.53C583.751,434.361 585.149,431.045 582.652,432.79C579.406,435.058 579.71,435.395 545.524,465.527C536.005,473.918 536.204,474.045 527.064,482.003C525.156,483.664 523.667,484.961 495.513,484.169C492.36,484.08 489.469,478.799 479.111,465.808C455.063,435.644 455.462,435.345 453.119,432.949C451.036,430.82 451.619,434.317 440.739,495.547C440.554,496.588 440.502,496.489 440.331,497.468C440.145,498.529 440.229,498.455 440.058,499.432Z" style="fill:rgb(254,254,254);"/>
            <path d="M532.047,564.483C531.427,570.576 523.51,633.008 516.022,646.242C503.095,669.088 486.545,665.282 419.5,665.553C364.448,665.776 347.658,667.246 339.799,648.376C336.17,639.661 335.808,637.943 346.646,576.528C355.523,526.226 371.524,531.238 439.5,531.244C507.465,531.25 523.936,528.218 530.729,550.432C532.822,557.276 531.885,557.364 532.047,564.483ZM398.542,625.072C403.903,625.167 459.612,626.155 465.56,624.752C473.461,622.887 472.578,614.714 477.27,588.458C478.524,581.438 481.458,571.789 470.502,571.433C468.303,571.361 410.014,571.149 407.495,571.444C396.617,572.721 398.363,577.705 393.047,607.425C391.28,617.3 388.742,623.053 398.542,625.072Z" style="fill:rgb(254,254,254);"/>
            <path id="_1" serif:id="1" d="M136.063,639.499C138.126,597.319 157.516,597.772 158.261,597.157C161.362,594.597 145.784,594.965 149.196,572.455C155.427,531.353 164.964,531.247 206.5,531.24C315.188,531.222 316.102,530.489 325.188,536.897C338.301,546.144 332.943,584.164 320.213,593.122C314.517,597.131 313.317,596.382 312.771,596.86C308.906,600.239 326.311,596.841 323.723,621.528C319.615,660.723 306.299,661.933 300.568,663.719C297.567,664.654 297.574,665.708 211.5,665.553C153.333,665.448 137.238,668.649 136.063,639.499ZM200.069,573.437C198.915,585.573 204.769,583.689 227.499,583.715C274.613,583.771 276.814,584.604 278.706,578.579C283.65,562.834 271.772,565.718 254.5,565.71C224.684,565.697 210.186,565.691 208.512,565.759C200.571,566.08 200.415,571.885 200.069,573.437ZM272.907,618.509C272.86,617.825 272.49,612.423 267.448,611.904C265.635,611.717 201.996,611.762 198.527,611.842C189.355,612.052 187.95,627.514 193.379,629.77C198.116,631.739 198.333,631.226 257.5,630.558C268.989,630.428 271.173,629.925 272.907,618.509Z" style="fill:rgb(254,254,254);"/>
            <path d="M557.28,595.709C550.77,592.136 543.584,589.515 550.982,556.593C557.542,527.404 577.072,531.27 634.5,531.256C714.536,531.235 725.279,528.799 730.713,547.44C732.242,552.688 733.347,588.216 714.282,596.053C711.954,597.01 710.579,597.826 712.792,599.025C715.888,600.703 728.404,602.64 719.013,641.399C712.382,668.762 698.053,665.53 636.5,665.534C553.503,665.541 544.895,667.339 537.811,653.331C530.661,639.195 537.927,610.862 545.611,603.611C553.74,595.94 557.258,599.086 557.28,595.709ZM588.952,624.502C589.835,631.513 592.818,630.84 630.5,630.65C666.089,630.47 669.64,631.635 671.187,622.446C673.344,609.635 666.458,611.737 641.499,611.711C594.249,611.662 592.019,610.744 590.316,616.424C589.13,620.377 589.438,620.337 588.952,624.502ZM605.579,565.94C594.014,569.78 597.857,581.874 602.603,583.149C604.247,583.591 670.155,585.067 674.423,582.37C679.273,579.307 681.531,565.991 672.484,565.786C667.133,565.665 631.237,564.854 605.579,565.94Z" style="fill:rgb(254,254,254);"/>
            <path d="M755.072,471.504C756.188,490.466 763.321,505.627 743.502,505.792C737.103,505.845 669.17,506.408 663.511,505.435C647.483,502.678 659.48,479.011 661.673,469.542C666.98,446.635 665.034,428.433 693.693,373.6C698.5,364.402 696.496,363.623 701.312,354.4C704.52,348.257 705.71,334.328 713.754,317.623C718.233,308.32 719.472,307.051 712.777,299.271C707.677,293.345 714.789,286.113 725.47,296.532C745.188,315.763 727.914,332.096 747.563,335.107C758.628,336.803 780.525,333.763 795.046,351.866C815.297,377.114 843.303,364.514 863.625,373.238C864.887,373.78 872.958,377.245 866,390.25C854.584,411.587 847.393,414.497 835.117,424C825.539,431.414 815.808,426.89 811.755,430.784C809.552,432.9 807.194,437.077 798.499,437.382C792.866,437.579 782.734,429.664 766.513,444.513C755.785,454.334 755.169,469.16 755.072,471.504ZM757.485,340.937C755.786,340.922 743.355,342.176 735.772,335.2C730.146,330.025 731.196,323.436 730.823,317.46C730.208,307.622 719.682,296.49 721.706,302.474C724.237,309.958 723.063,310.182 718.72,319.604C707.626,343.67 712.382,345.722 704.913,358.733C702.538,362.87 702.243,367.35 701.767,368.591C691.585,395.165 679.831,399.121 668.72,461.543C664.763,483.774 656.903,494.491 662.591,499.381C663.073,499.796 663.081,500.654 728.5,500.543C747.779,500.511 750.401,501.605 751.63,494.518C753.034,486.426 739.007,450.758 773.663,432.83C791.538,423.583 796.794,437.488 805.336,429.32C812.551,422.42 813.599,424.428 823.452,423.183C825.51,422.922 829.617,422.403 845.446,409.434C855.887,400.879 863.073,384.064 863.375,381.488C864.342,373.246 827.882,374.554 823.466,373.7C804.681,370.068 795.495,360.308 793.657,358.355C790.669,355.18 784.835,342.793 757.485,340.937Z" style="fill:rgb(254,254,254);"/>
            <path d="M825.465,527.934C829.735,528.504 850.702,529.111 870.18,549.797C909.292,591.334 882.51,665.677 820.5,666.524C751.294,667.47 722.234,573.812 786.768,535.985C790.476,533.812 798.487,530.645 804.459,529.329C813.717,527.29 820.108,527.865 825.465,527.934ZM761.083,597.499C763.202,666.169 853.094,676.438 874.779,617.603C895.643,560.995 825.856,510.901 779.79,553.818C761.969,570.422 761.207,593.699 761.083,597.499Z" style="fill:rgb(254,254,254);"/>
            <path d="M829.56,563.076C856.21,568.179 851.21,593.954 838.387,601.306C835.989,602.681 834.118,601.998 835.262,604.572C837.132,608.778 850.751,630.267 849.584,631.594C849.568,631.613 836.527,633.203 834.712,630.367C829.897,622.841 822.552,605.022 818.478,604.884C812.008,604.665 807.023,604.501 806.874,606.541C806.423,612.69 808.026,631.086 805.592,631.779C805.536,631.795 794.762,632.404 793.974,631.164C793.564,630.518 793.126,564.301 794.233,563.22C795.047,562.425 820.237,562.458 829.56,563.076ZM835.061,583.488C833.801,572.138 827.119,573.605 809.502,573.667C805.647,573.681 806.847,579.873 806.848,585.5C806.849,591.296 805.659,593.654 811.499,593.692C825.732,593.783 833.506,595.08 835.061,583.488Z" style="fill:rgb(254,254,254);"/>
        </g>
    </g>
</svg>
