<?xml version="1.0" encoding="UTF-8" standalone="no"?>
<!DOCTYPE svg PUBLIC "-//W3C//DTD SVG 1.1//EN" "http://www.w3.org/Graphics/SVG/1.1/DTD/svg11.dtd">
<svg width="100%" height="100%" viewBox="0 0 447 447" version="1.1" xmlns="http://www.w3.org/2000/svg" xmlns:xlink="http://www.w3.org/1999/xlink" xml:space="preserve" xmlns:serif="http://www.serif.com/" style="fill-rule:evenodd;clip-rule:evenodd;stroke-linejoin:round;stroke-miterlimit:2;">
    <g id="Fundo">
        <path d="M289.483,213.035C290.534,212.892 298.658,211.787 302.124,209.018C316.338,197.661 317.523,198.652 327.002,183.19C343.372,156.486 316.446,168.268 282.538,159.345C259.926,153.395 266.776,142.364 251.3,135.962C236.264,129.741 226.862,130.611 221.508,130.39C214.689,130.107 211.869,126.262 209.544,125.385C202.827,122.852 204.074,121.021 203.129,107.522C202.003,91.455 181.582,82.563 186.871,90.277C191.786,97.443 193.734,99.328 187.516,114.506C178.824,135.723 172.432,160.058 168.327,167.401C138.325,221.06 146.118,233.476 131.28,279.433C130.484,281.898 122.148,280.141 120.448,279.962C73.556,275.002 78.12,239.788 78.12,193.5C78.12,112.477 72.94,85.05 117.486,77.401C120.266,76.923 120.282,76.273 311.5,76.376C374.926,76.41 368.875,110.329 368.879,174.5C368.882,245.581 375.416,279.878 314.506,280.875C314.19,280.88 226.829,280.901 226.461,280.863C224.574,280.669 223.873,280.102 222.325,257.51C221.351,243.294 233.765,226.613 245.682,221.943C258.385,216.965 261.513,221.22 262.392,221.706C272.833,227.477 271.945,214.777 289.483,213.035ZM341.299,121.061C357.454,110.885 346.382,95.094 337.555,94.186C314.07,91.768 315.825,129.117 341.299,121.061Z" style="fill:rgb(254,254,254);"/>
        <path d="M188.358,305.1C192.473,303.988 192.437,303.458 244.5,303.566C271.006,303.621 269.678,312.886 269.454,346.5C269.278,372.862 259.108,370.625 232.5,370.625C190.037,370.625 178.006,373.877 177.547,349.5C176.81,310.441 179.509,309.217 188.358,305.1ZM243.381,335.5C243.327,328.476 244.328,328.223 242.562,325.45C241.081,323.125 205.929,324.488 205.552,324.626C202.137,325.876 203.255,347.831 204.782,349.186C206.8,350.977 207.104,350.395 238.494,350.188C244.977,350.145 243.388,343.424 243.381,335.5Z" style="fill:rgb(254,254,254);"/>
        <path d="M85.4,335.607C76.008,329.055 80.858,311.708 82.416,309.442C87.189,302.5 91.994,303.566 122.5,303.566C159.777,303.566 172.832,299.734 170.138,326.456C169.276,335.002 161.639,335.214 166.107,337.982C171.736,341.47 171.336,349.829 171.043,357.47C170.447,373.004 158.57,370.625 119.5,370.625C87.915,370.625 79.049,373.387 79.138,351.501C79.197,336.913 84.53,339.274 86.04,337.087C86.185,336.877 85.402,336.71 85.548,336.499L85.4,335.607ZM144.27,325.5C143.772,323.062 144.655,322.267 142.457,321.639C141.28,321.303 134.823,321.404 128.5,321.404C109.234,321.404 106.134,320.219 106.133,325.499C106.132,330.867 108.826,329.774 133.5,329.782C140.718,329.784 143.18,331.621 144.27,325.5ZM145.121,348.5C145.103,348.257 145.649,344.766 143.387,343.929C142.632,343.65 108.362,343.764 107.542,343.83C103.701,344.14 105.267,350.997 105.508,351.495C106.658,353.873 107.554,353.055 138.5,352.823C143.233,352.788 144.587,353.22 145.121,348.5Z" style="fill:rgb(253,253,253);"/>
        <path d="M361.603,335.612L361.389,336.496C361.538,336.7 360.792,336.904 360.941,337.108C361.02,337.216 365.25,338.319 367.05,343.655C367.145,343.937 370.293,360.019 364.374,366.384C360.396,370.66 359.438,371.69 291.499,370.625C290.402,370.608 272.234,373.244 276.231,345.455C277.339,337.751 285.34,338.206 280.977,335.032C276.057,331.452 270.086,304.377 291.502,303.594C291.656,303.588 350.625,303.467 353.487,303.659C371.222,304.851 369.866,329.882 361.603,335.612ZM301.879,348.5C302.683,355.398 305.623,352.826 312.5,352.823C339.236,352.81 342.008,353.885 341.929,348.499C341.834,342.08 337.537,343.772 325.5,343.772C315.069,343.772 306.254,343.755 304.523,343.827C301.176,343.965 301.914,348.026 301.879,348.5ZM302.739,325.498C303.781,331.48 306.048,329.782 314.5,329.782C338.202,329.781 340.888,330.845 340.862,325.498C340.835,320.212 337.666,321.404 318.5,321.404C314.85,321.404 305.67,321.327 304.544,321.644C302.354,322.261 303.233,323.055 302.739,325.498Z" style="fill:rgb(253,253,253);"/>
        <path d="M335.5,96.431C356.83,99.295 344.638,127.758 328.73,118.181C321.853,114.041 319.195,97.752 335.5,96.431ZM329.831,108.5C329.911,114.064 329.1,114.613 330.641,115.143C333.713,116.198 330.807,107.734 335.524,110.473C336.127,110.823 338.246,116.637 340.24,115.082C342.66,113.194 337.283,111.959 340.049,108.158C344.918,101.465 330.019,98.167 329.801,103.515C329.733,105.175 329.899,106.84 329.831,108.5Z" style="fill:rgb(250,250,250);"/>
        <path d="M332.398,105.501C332.516,105.116 333.548,101.755 337.159,103.877C340.127,105.621 333.968,110.88 332.398,105.501Z" style="fill:rgb(252,252,252);"/>
    </g>
</svg>
