<?xml version="1.0" encoding="UTF-8" standalone="no"?>
<!DOCTYPE svg PUBLIC "-//W3C//DTD SVG 1.1//EN" "http://www.w3.org/Graphics/SVG/1.1/DTD/svg11.dtd">
<svg width="100%" height="100%" viewBox="790 789 470 470" version="1.1" xmlns="http://www.w3.org/2000/svg" xmlns:xlink="http://www.w3.org/1999/xlink" xml:space="preserve" xmlns:serif="http://www.serif.com/" style="fill-rule:evenodd;clip-rule:evenodd;stroke-linejoin:round;stroke-miterlimit:2;">
    <g id="Fundo" transform="matrix(2,0,0,2,-500.096712,226.742939)">
        <path d="M755.072,471.504C756.188,490.466 763.321,505.627 743.502,505.792C737.103,505.845 669.17,506.408 663.511,505.435C647.483,502.678 659.48,479.011 661.673,469.542C666.98,446.635 665.034,428.433 693.693,373.6C698.5,364.402 696.496,363.623 701.312,354.4C704.52,348.257 705.71,334.328 713.754,317.623C718.233,308.32 719.472,307.051 712.777,299.271C707.677,293.345 714.789,286.113 725.47,296.532C745.188,315.763 727.914,332.096 747.563,335.107C758.628,336.803 780.525,333.763 795.046,351.866C815.297,377.114 843.303,364.514 863.625,373.238C864.887,373.78 872.958,377.245 866,390.25C854.584,411.587 847.393,414.497 835.117,424C825.539,431.414 815.808,426.89 811.755,430.784C809.552,432.9 807.194,437.077 798.499,437.382C792.866,437.579 782.734,429.664 766.513,444.513C755.785,454.334 755.169,469.16 755.072,471.504ZM757.485,340.937C755.786,340.922 743.355,342.176 735.772,335.2C730.146,330.025 731.196,323.436 730.823,317.46C730.208,307.622 719.682,296.49 721.706,302.474C724.237,309.958 723.063,310.182 718.72,319.604C707.626,343.67 712.382,345.722 704.913,358.733C702.538,362.87 702.243,367.35 701.767,368.591C691.585,395.165 679.831,399.121 668.72,461.543C664.763,483.774 656.903,494.491 662.591,499.381C663.073,499.796 663.081,500.654 728.5,500.543C747.779,500.511 750.401,501.605 751.63,494.518C753.034,486.426 739.007,450.758 773.663,432.83C791.538,423.583 796.794,437.488 805.336,429.32C812.551,422.42 813.599,424.428 823.452,423.183C825.51,422.922 829.617,422.403 845.446,409.434C855.887,400.879 863.073,384.064 863.375,381.488C864.342,373.246 827.882,374.554 823.466,373.7C804.681,370.068 795.495,360.308 793.657,358.355C790.669,355.18 784.835,342.793 757.485,340.937Z" style="fill:rgb(254,254,254);"/>
    </g>
    <path d="M1129.438,966.721C1151.439,967.638 1183.277,971.102 1188.628,972.172C1200.756,974.598 1200.276,977.687 1212.653,976.918C1218.341,976.564 1223.81,979.171 1227.117,983.814C1230.423,988.456 1231.1,994.476 1228.906,999.737C1226.172,1006.293 1221.586,1012.333 1216.355,1017.991C1211.651,1023.078 1206.029,1027.564 1203.392,1032.838C1196.924,1045.774 1188.96,1053.29 1162.509,1066.516C1158.65,1068.445 1156.214,1069.542 1155.007,1070.064C1153.573,1071.006 1151.765,1072.072 1149.622,1073.146C1140.052,1077.941 1119.432,1086.613 1119.278,1086.69C1108.309,1092.175 1108.314,1093.914 1083.254,1091.986C1076.72,1091.484 1064.922,1094.125 1064.293,1094.164C1050.954,1094.998 1051.62,1097.283 1039.661,1103.262C1027.078,1109.553 1025.224,1108.172 1018.939,1120.741C1007.231,1144.158 1006.553,1145.816 1005.785,1148.121C1004.912,1150.74 1003.851,1152.674 1002.764,1154.158C1003.076,1155.089 1003.368,1156.174 1003.58,1157.399C1004.023,1159.946 1004.396,1165.026 1004.433,1165.583C1004.674,1169.196 1004.983,1169.041 1005.423,1172.559C1009.516,1205.302 1010.336,1205.409 1008.3,1213.553C1007.068,1218.482 1005.191,1221.973 1002.383,1224.82C999.683,1227.559 995.879,1230.215 988.864,1231.291C984.975,1231.888 978.71,1232.007 968.321,1231.43C934.377,1229.544 934.469,1230.712 916.004,1230.002C913.679,1229.912 911.474,1229.343 909.489,1228.387C896.367,1227.037 890.525,1228.153 884.853,1228.952C878.895,1229.791 873.067,1230.37 863.435,1229.166C855.903,1228.225 835.772,1230.558 832.814,1230.066L827.391,1228.222L822.299,1223.971L820.051,1220.25L818.762,1215.404L818.829,1212.008C818.19,1209.786 817.599,1207.484 817.636,1206.696L819.381,1200.011C819.26,1200.253 818.715,1201.522 818.715,1201.522C818.715,1201.522 825.693,1169.178 828.219,1159.076C829.177,1155.244 837.9,1120.484 839.479,1111.01C843.469,1087.072 855.472,1069.449 858.933,1048.685C859.704,1044.058 862.335,1040.203 865.932,1037.756L865.768,1037.302L865.533,1030.519L867.653,1024.829C867.999,1024.253 869.292,1022.288 871.769,1020.071C872.036,1019.831 872.336,1019.571 872.66,1019.296C872.977,1017.527 873.582,1015.8 874.478,1014.191C874.655,1013.822 874.905,1013.308 875.221,1012.676C880.246,1002.625 884.315,999.538 885.026,999.083L886.498,998.42L886.77,997.405C885.925,995.989 885.796,994.184 886.588,992.601C886.965,991.846 889.553,986.734 890.532,982.816C895.32,963.665 897.517,955.117 897.962,953.546L898.503,952.18L899.204,951.224L900.24,950.378L902.312,949.667L902.604,949.686C904.331,942.173 910.851,927.67 916.691,917.21C919.775,903.705 922.915,890.323 925.306,885.542C925.859,884.435 926.77,883.622 927.829,883.175C928.077,882.492 928.33,881.8 928.415,881.586L929.568,879.803C929.528,879.843 929.444,879.94 929.444,879.94C929.444,879.94 930.465,877.837 931.152,876.012C931.323,873.198 932.217,870.392 933.892,867.879L933.934,867.817C934.679,865.607 935.444,863.432 936.222,861.532C938.049,857.074 940.456,854.004 942.377,853.043C942.775,852.844 943.186,852.704 943.602,852.618C943.79,851.472 944.061,850.297 944.444,849.146C944.472,849.064 944.497,848.981 944.521,848.897C944.3,847.457 943.821,845.863 942.945,844.11C941.866,841.951 940.987,838.745 940.25,835.707C939.716,833.505 939.328,831.415 938.813,830.386C937.579,827.918 938.581,824.912 941.049,823.678C943.517,822.444 946.523,823.446 947.757,825.914C948.364,827.127 948.989,829.3 949.592,831.789L949.595,831.803L949.698,831.73L951.889,831.332L953.04,831.518L954.245,832.037L955.275,832.846L956.076,833.895C956.272,834.229 956.666,835.069 957.178,836.603C958.581,840.814 959.207,844.236 959.46,846.798C960.628,847.629 961.433,848.952 961.551,850.491C961.832,854.137 964.811,862.82 965.614,866.86C965.859,868.094 965.94,869.085 965.914,869.731L965.754,870.935L965.317,872.146L964.645,873.076L964.706,873.245C965.356,874.693 965.787,876.564 966.072,878.419C966.645,880.049 966.965,881.775 967.002,883.535C967.271,883.8 967.578,884.102 967.934,884.458C970.18,886.705 971.926,889.388 973.31,892.459C973.666,893.249 974.232,894.612 974.644,895.616L974.812,895.643C986.434,897.303 990.476,901.38 1003.272,903.208C1017.155,905.191 1017.223,903.848 1031.031,906.149C1033.559,906.57 1055.457,910.34 1065.191,913.917C1073.043,916.803 1077.038,921.724 1078.382,924.412C1079.427,926.502 1082.805,929.439 1083.217,929.851C1084.177,930.811 1093.013,946.231 1104.507,951.978C1108.376,953.913 1111.644,955.862 1114.433,957.805C1114.549,957.803 1114.665,957.802 1114.781,957.802C1121.155,957.802 1126.69,961.424 1129.438,966.721Z" style="fill:rgb(254,254,254);"/>
</svg>
